<?xml version="1.0" encoding="UTF-8" standalone="no"?>
<!-- Uploaded to: SVG Repo, www.svgrepo.com, Generator: SVG Repo Mixer Tools -->

<svg
   height="800px"
   width="800px"
   version="1.1"
   id="Capa_1"
   viewBox="0 0 331.331 331.331"
   xml:space="preserve"
   sodipodi:docname="quill-drawing-a-line.svg"
   inkscape:version="1.3 (0e150ed6c4, 2023-07-21)"
   xmlns:inkscape="http://www.inkscape.org/namespaces/inkscape"
   xmlns:sodipodi="http://sodipodi.sourceforge.net/DTD/sodipodi-0.dtd"
   xmlns="http://www.w3.org/2000/svg"
   xmlns:svg="http://www.w3.org/2000/svg"><defs
   id="defs5">&#10;	&#10;	&#10;	&#10;	&#10;	&#10;	&#10;</defs><sodipodi:namedview
   id="namedview5"
   pagecolor="#ffffff"
   bordercolor="#000000"
   borderopacity="0.25"
   inkscape:showpageshadow="2"
   inkscape:pageopacity="0.0"
   inkscape:pagecheckerboard="0"
   inkscape:deskcolor="#d1d1d1"
   inkscape:zoom="0.29029174"
   inkscape:cx="318.64496"
   inkscape:cy="105.06672"
   inkscape:window-width="1366"
   inkscape:window-height="705"
   inkscape:window-x="-8"
   inkscape:window-y="-8"
   inkscape:window-maximized="1"
   inkscape:current-layer="Capa_1" />&#10;&#10;<g
   id="g1"
   transform="translate(-1.656655,9.1116025)"><path
     style="fill:#ff0000;fill-opacity:1;stroke-width:0.708933"
     d="m 69.617488,188.86043 c -5.845416,19.37641 -5.510868,34.13374 -3.248836,38.18917 h 3.535799 c 9.763349,-18.96585 56.786559,-87.66725 86.055369,-109.17197 30.32444,-22.281881 53.71635,-35.246633 73.39019,-44.701763 6.90836,-3.319454 13.99533,-7.815651 20.38612,-12.322834 7.76047,-5.739533 15.62781,-11.878637 22.51638,-17.886611 l -19.96812,12.281641 8.9032,-12.771149 -16.9982,16.210063 11.06127,-17.684766 c -26.16785,2.214114 -50.45141,14.492323 -50.45141,14.492323 -9.71503,10.806938 -17.53917,27.998763 -17.53917,27.998763 -0.27087,-8.596257 5.93692,-21.613188 5.93692,-21.613188 -4.58702,1.96421 -22.01493,11.299877 -22.01493,11.299877 -8.52472,6.632046 -11.17255,24.070343 -11.17255,24.070343 -1.62075,-6.878515 4.04531,-20.138487 4.04531,-20.138487 -24.55514,13.264089 -42.09432,35.859028 -42.09432,35.859028 -12.14031,22.34918 -2.15808,39.78747 -5.93693,35.61258 -3.77884,-4.1749 -2.96626,-19.4025 -2.96626,-19.4025 -25.634184,23.08857 -28.329592,34.13786 -28.329592,34.13786 -4.316165,9.82449 -8.095006,36.10551 -8.095006,36.10551 -2.42894,-2.45715 0,-16.21006 0,-16.21006 -6.207049,12.28165 -3.237124,23.82387 -3.237124,23.82387 -2.966266,-0.98521 -3.778108,-18.1777 -3.77811,-18.1777 z"
     id="path3-5" /><path
     style="fill:#000000;fill-opacity:1;stroke-width:0.708933"
     d="m 68.263889,261.13669 3.237125,-12.1251 -8.926615,-3.30505 -6.131648,9.47711 c 0,0 3.380604,8.59968 -0.374078,15.47408 0.003,6.8e-4 4.701224,-7.50464 12.195216,-9.52104 z m -5.996951,-5.56377 c 1.098806,-0.42223 2.365252,0.0596 2.819124,1.07169 0.457531,1.01198 -0.06368,2.17705 -1.162495,2.59927 -1.098807,0.42223 -2.365253,-0.0596 -2.819123,-1.0717 -0.461924,-1.01608 0.06003,-2.18115 1.162494,-2.59926 z"
     id="path1-4" /><path
     style="fill:#000000;fill-opacity:1;stroke-width:0.708933"
     d="m 161.91647,120.5037 c -25.70591,19.77256 -59.35898,60.50128 -87.899401,108.07831 l -0.01611,-0.0186 -4.988919,8.25643 5.319805,1.91958 2.811071,-6.9458 C 92.368825,206.05431 133.67473,138.83517 209.2025,94.174594 c 0,0 28.11876,-15.706137 55.82318,-37.427802 -6.7451,5.287786 -20.05157,11.915711 -27.26665,16.191527 -18.93667,11.220926 -42.30515,21.76629 -75.84256,47.565361 z"
     id="path2-1" /><path
     style="fill:#ff0000;fill-opacity:1;stroke-width:0.708933"
     d="m 276.3408,52.926873 c 0,0 -9.87023,8.969737 -22.51639,17.88661 -19.82464,14.66396 -38.91284,26.651072 -38.91284,26.651072 C 140.13195,138.90591 98.463671,206.5356 84.691621,229.72443 h 7.32196 c 2.587797,-1.94569 6.474247,-3.41283 22.703799,-7.81909 20.50545,-5.5679 32.73727,-17.19183 32.73727,-17.19183 0,0 -18.70607,9.82449 -27.52141,8.84272 -8.81535,-0.98176 -20.660657,2.1283 -20.660657,2.1283 0,0 -4.523335,-1.96421 17.782227,-5.07495 22.30556,-3.11075 59.00029,-26.52407 59.00029,-26.52407 0,0 -14.0312,5.40313 -20.50544,4.91019 -6.47425,-0.49294 -22.48418,0 -22.48418,0 10.61106,-2.29306 20.50545,-0.98176 36.69472,-6.71374 16.18928,-5.73198 15.28959,-5.23905 15.28959,-5.23905 18.34737,-5.73197 25.96874,-23.57739 25.96874,-23.57739 -3.17344,1.14653 -27.41014,3.92842 -37.46339,1.14653 -10.05395,-2.78188 -27.18247,0 -27.18247,0 16.18928,-5.07496 19.78878,-2.78188 23.74258,-2.94597 3.95746,-0.16408 16.73099,0.81767 42.09432,-7.36734 25.36333,-8.18502 32.55791,-18.33837 32.55791,-18.33837 l -17.10507,2.14341 c 11.16889,-1.76237 23.75867,-8.69306 23.75867,-8.69306 -7.7363,1.96422 -19.78877,2.94597 -19.78877,2.94597 14.21056,-2.94597 22.12621,-7.03916 22.12621,-7.03916 13.31086,-9.49632 16.36863,-23.577405 16.36863,-23.577405 -18.88907,6.056719 -33.81631,3.27483 -33.81631,3.27483 25.90506,-1.635354 33.09963,-7.860278 36.69474,-9.331548 3.59948,-1.474703 5.08042,-7.572615 5.08042,-7.572615 -13.08759,4.421364 -27.9277,5.156656 -27.9277,5.156656 16.05385,-2.333574 29.81053,-9.948068 29.81053,-9.948068 v -7.622046 c -6.20704,3.316024 -17.12922,5.896068 -17.12922,5.896068 l 16.99746,-10.313998 c 0.95531,-5.160087 -3.49627,-8.352531 -3.49627,-8.352531 z"
     id="path4-7" /><polygon
     style="fill:#ff0000;fill-opacity:1"
     points="26.124,284.458 23.551,290.571 37.361,296.103 39.933,289.989 "
     id="polygon4-7"
     transform="matrix(0.73204974,0,0,0.6865471,45.994205,43.184083)" /></g></svg>
